<svg viewBox="0 0 151.0 142.0" xmlns="http://www.w3.org/2000/svg" fill="none" stroke="#fff" stroke-width="4.6" stroke-linecap="square" stroke-linejoin="miter"><line x1="32.0" y1="136.0" x2="58.0" y2="136.0"/><line x1="27.0" y1="58.0" x2="60.0" y2="32.0"/><line x1="60.0" y1="32.0" x2="93.0" y2="6.0"/><line x1="53.0" y1="58.0" x2="79.0" y2="58.0"/><line x1="105.0" y1="58.0" x2="138.0" y2="32.0"/><line x1="98.0" y1="84.0" x2="124.0" y2="84.0"/><line x1="65.0" y1="110.0" x2="72.0" y2="84.0"/><line x1="79.0" y1="58.0" x2="105.0" y2="58.0"/><line x1="58.0" y1="136.0" x2="65.0" y2="110.0"/><line x1="34.0" y1="32.0" x2="41.0" y2="6.0"/><line x1="86.0" y1="32.0" x2="93.0" y2="6.0"/><line x1="112.0" y1="32.0" x2="145.0" y2="6.0"/><line x1="6.0" y1="136.0" x2="39.0" y2="110.0"/><line x1="53.0" y1="58.0" x2="60.0" y2="32.0"/><line x1="13.0" y1="110.0" x2="46.0" y2="84.0"/><line x1="105.0" y1="58.0" x2="131.0" y2="58.0"/><line x1="58.0" y1="136.0" x2="84.0" y2="136.0"/><line x1="34.0" y1="32.0" x2="60.0" y2="32.0"/><line x1="112.0" y1="32.0" x2="119.0" y2="6.0"/><line x1="84.0" y1="136.0" x2="91.0" y2="110.0"/><line x1="27.0" y1="58.0" x2="53.0" y2="58.0"/><line x1="39.0" y1="110.0" x2="72.0" y2="84.0"/><line x1="86.0" y1="32.0" x2="112.0" y2="32.0"/><line x1="72.0" y1="84.0" x2="105.0" y2="58.0"/><line x1="79.0" y1="58.0" x2="86.0" y2="32.0"/><line x1="119.0" y1="6.0" x2="145.0" y2="6.0"/><line x1="91.0" y1="110.0" x2="124.0" y2="84.0"/><line x1="32.0" y1="136.0" x2="65.0" y2="110.0"/><line x1="110.0" y1="136.0" x2="117.0" y2="110.0"/><line x1="84.0" y1="136.0" x2="110.0" y2="136.0"/><line x1="112.0" y1="32.0" x2="138.0" y2="32.0"/><line x1="27.0" y1="58.0" x2="34.0" y2="32.0"/><line x1="98.0" y1="84.0" x2="131.0" y2="58.0"/><line x1="60.0" y1="32.0" x2="67.0" y2="6.0"/><line x1="13.0" y1="110.0" x2="39.0" y2="110.0"/><line x1="105.0" y1="58.0" x2="112.0" y2="32.0"/><line x1="72.0" y1="84.0" x2="98.0" y2="84.0"/><line x1="41.0" y1="6.0" x2="67.0" y2="6.0"/><line x1="60.0" y1="32.0" x2="86.0" y2="32.0"/><line x1="39.0" y1="110.0" x2="65.0" y2="110.0"/><line x1="131.0" y1="58.0" x2="138.0" y2="32.0"/><line x1="65.0" y1="110.0" x2="98.0" y2="84.0"/><line x1="91.0" y1="110.0" x2="117.0" y2="110.0"/><line x1="6.0" y1="136.0" x2="13.0" y2="110.0"/><line x1="13.0" y1="110.0" x2="20.0" y2="84.0"/><line x1="20.0" y1="84.0" x2="46.0" y2="84.0"/><line x1="58.0" y1="136.0" x2="91.0" y2="110.0"/><line x1="34.0" y1="32.0" x2="67.0" y2="6.0"/><line x1="86.0" y1="32.0" x2="119.0" y2="6.0"/><line x1="53.0" y1="58.0" x2="86.0" y2="32.0"/><line x1="91.0" y1="110.0" x2="98.0" y2="84.0"/><line x1="72.0" y1="84.0" x2="79.0" y2="58.0"/><line x1="138.0" y1="32.0" x2="145.0" y2="6.0"/><line x1="124.0" y1="84.0" x2="131.0" y2="58.0"/><line x1="67.0" y1="6.0" x2="93.0" y2="6.0"/><line x1="46.0" y1="84.0" x2="72.0" y2="84.0"/><line x1="39.0" y1="110.0" x2="46.0" y2="84.0"/><line x1="32.0" y1="136.0" x2="39.0" y2="110.0"/><line x1="6.0" y1="136.0" x2="32.0" y2="136.0"/><line x1="84.0" y1="136.0" x2="117.0" y2="110.0"/><line x1="65.0" y1="110.0" x2="91.0" y2="110.0"/><line x1="98.0" y1="84.0" x2="105.0" y2="58.0"/><line x1="93.0" y1="6.0" x2="119.0" y2="6.0"/><line x1="79.0" y1="58.0" x2="112.0" y2="32.0"/><line x1="117.0" y1="110.0" x2="124.0" y2="84.0"/></svg>